<svg xmlns="http://www.w3.org/2000/svg" viewBox="0 0 195 53" width="195" height="53" fill="none">
  <g transform="translate(-4.94,-7.90) scale(1.4792)"><circle cx="22" cy="24" r="12.6" fill="none" stroke="#F2A23C" stroke-width="2.0" opacity="0.55"/><circle cx="22" cy="24" r="9" fill="none" stroke="#F2A23C" stroke-width="2.3" opacity="0.85"/><circle cx="22" cy="24" r="5.7" fill="#F2A23C"/></g>
  <g transform="translate(63.20,41.60)"><path d="M9.3579833984375 0.0V-23.6339697265625H0.987998046875V-28.0H22.532001953125V-23.6339697265625H14.1620166015625V0.0ZM35.307998046875 0.56Q32.347998046875 0.56 30.012496337890624 -0.650499267578125Q27.67699462890625 -1.8609985351562501 26.341492919921876 -4.137498779296875Q25.0059912109375 -6.4139990234375 25.0059912109375 -9.579001464843751V-10.19100341796875Q25.0059912109375 -13.356005859375001 26.341492919921876 -15.632506103515627Q27.67699462890625 -17.909006347656252 30.012496337890624 -19.119505615234374Q32.347998046875 -20.3300048828125 35.307998046875 -20.3300048828125Q38.267998046875 -20.3300048828125 40.603499755859374 -19.119505615234374Q42.93900146484375 -17.909006347656252 44.27450317382812 -15.632506103515627Q45.610004882812504 -13.356005859375001 45.610004882812504 -10.19100341796875V-9.579001464843751Q45.610004882812504 -6.4139990234375 44.27450317382812 -4.137498779296875Q42.93900146484375 -1.8609985351562501 40.603499755859374 -0.650499267578125Q38.267998046875 0.56 35.307998046875 0.56ZM35.307998046875 -3.5140283203125002Q37.823984375 -3.5140283203125002 39.427978515625 -5.1330200195312505Q41.03197265625 -6.75201171875 41.03197265625 -9.692001953125V-10.0780029296875Q41.03197265625 -13.017993164062501 39.44447875976562 -14.63698486328125Q37.85698486328125 -16.2559765625 35.307998046875 -16.2559765625Q32.79901123046875 -16.2559765625 31.191517333984375 -14.63698486328125Q29.5840234375 -13.017993164062501 29.5840234375 -10.0780029296875V-9.692001953125Q29.5840234375 -6.75201171875 31.191517333984375 -5.1330200195312505Q32.79901123046875 -3.5140283203125002 35.307998046875 -3.5140283203125002ZM50.005991210937495 0.0V-28.0H54.5840234375V-12.27501708984375H55.2620263671875L62.41698486328125 -19.7700048828125H68.44502197265625L58.872050781249996 -10.19100341796875L68.76502197265626 0.0H62.8099853515625L55.2620263671875 -8.0339892578125H54.5840234375V0.0ZM71.8459912109375 0.0V-19.7700048828125H76.4240234375V0.0ZM74.13500732421875 -22.2719921875Q72.85900146484376 -22.2719921875 71.97849731445314 -23.10299560546875Q71.0979931640625 -23.9339990234375 71.0979931640625 -25.276005859375Q71.0979931640625 -26.62501220703125 71.97849731445314 -27.452515869140626Q72.85900146484376 -28.28001953125 74.13500732421875 -28.28001953125Q75.45101318359374 -28.28001953125 76.31151733398437 -27.452515869140626Q77.172021484375 -26.62501220703125 77.172021484375 -25.276005859375Q77.172021484375 -23.9339990234375 76.31151733398437 -23.10299560546875Q75.45101318359374 -22.2719921875 74.13500732421875 -22.2719921875ZM91.14799804687499 0.56Q88.187998046875 0.56 85.85249633789061 -0.650499267578125Q83.51699462890625 -1.8609985351562501 82.18149291992188 -4.137498779296875Q80.8459912109375 -6.4139990234375 80.8459912109375 -9.579001464843751V-10.19100341796875Q80.8459912109375 -13.356005859375001 82.18149291992188 -15.632506103515627Q83.51699462890625 -17.909006347656252 85.85249633789061 -19.119505615234374Q88.187998046875 -20.3300048828125 91.14799804687499 -20.3300048828125Q94.107998046875 -20.3300048828125 96.44349975585936 -19.119505615234374Q98.77900146484374 -17.909006347656252 100.11450317382813 -15.632506103515627Q101.4500048828125 -13.356005859375001 101.4500048828125 -10.19100341796875V-9.579001464843751Q101.4500048828125 -6.4139990234375 100.11450317382813 -4.137498779296875Q98.77900146484374 -1.8609985351562501 96.44349975585936 -0.650499267578125Q94.107998046875 0.56 91.14799804687499 0.56ZM91.14799804687499 -3.5140283203125002Q93.663984375 -3.5140283203125002 95.267978515625 -5.1330200195312505Q96.87197265625 -6.75201171875 96.87197265625 -9.692001953125V-10.0780029296875Q96.87197265625 -13.017993164062501 95.28447875976562 -14.63698486328125Q93.69698486328124 -16.2559765625 91.14799804687499 -16.2559765625Q88.63901123046875 -16.2559765625 87.03151733398437 -14.63698486328125Q85.4240234375 -13.017993164062501 85.4240234375 -10.0780029296875V-9.692001953125Q85.4240234375 -6.75201171875 87.03151733398437 -5.1330200195312505Q88.63901123046875 -3.5140283203125002 91.14799804687499 -3.5140283203125002ZM113.99499755859374 0.56Q110.17799316406249 0.56 107.6944934082031 -1.12Q105.21099365234373 -2.8000000000000003 104.68399414062499 -6.05299072265625L108.92502197265624 -7.12Q109.21202148437499 -5.5940087890625 109.92801757812498 -4.7205139160156255Q110.64401367187499 -3.8470190429687503 111.70100830078124 -3.475521240234375Q112.75800292968749 -3.1040234375 113.99499755859374 -3.1040234375Q115.86698974609374 -3.1040234375 116.81548217773437 -3.7870190429687502Q117.76397460937498 -4.4700146484375 117.76397460937498 -5.5300048828125Q117.76397460937498 -6.59699462890625 116.86248168945312 -7.128492431640625Q115.96098876953124 -7.659990234375 114.10999511718748 -7.9939892578125L112.86400390624999 -8.214987792968751Q110.82600097656248 -8.60098876953125 109.14799804687499 -9.2939892578125Q107.4699951171875 -9.98698974609375 106.46149291992187 -11.205991210937501Q105.45299072265624 -12.424992675781251 105.45299072265624 -14.33599609375Q105.45299072265624 -17.21900146484375 107.58149291992186 -18.774503173828123Q109.70999511718749 -20.3300048828125 113.18799804687498 -20.3300048828125Q116.50799804687499 -20.3300048828125 118.67650024414061 -18.846505126953126Q120.84500244140624 -17.36300537109375 121.49700439453125 -14.8860107421875L117.24397460937499 -13.6139990234375Q116.90997558593749 -15.2739892578125 115.83898193359374 -15.9699853515625Q114.76798828124998 -16.6659814453125 113.18799804687498 -16.6659814453125Q111.61500732421874 -16.6659814453125 110.75701416015625 -16.106485595703127Q109.89902099609374 -15.54698974609375 109.89902099609374 -14.5339990234375Q109.89902099609374 -13.462006835937501 110.76901611328124 -12.95301025390625Q111.63901123046874 -12.444013671875 113.12500244140624 -12.183015136718751L114.37099365234374 -11.9620166015625Q116.56899658203123 -11.576015625 118.3504992675781 -10.92301513671875Q120.13200195312498 -10.2700146484375 121.17100341796873 -9.067513427734376Q122.21000488281248 -7.86501220703125 122.21000488281248 -5.82700927734375Q122.21000488281248 -2.7700048828125 119.98150268554686 -1.10500244140625Q117.75300048828123 0.56 113.99499755859374 0.56Z" fill="#E7EBF1"/></g>
</svg>